<svg width="25" height="24" viewBox="0 0 25 24" fill="none" xmlns="http://www.w3.org/2000/svg">
<path d="M24.0321 16.6088H7.74888L8.56645 14.9435L22.1508 14.9189C22.6102 14.9189 23.004 14.5908 23.086 14.1369L24.9672 3.60682C25.0165 3.33065 24.9426 3.04628 24.7622 2.83026C24.673 2.72395 24.5617 2.63831 24.4361 2.57929C24.3105 2.52027 24.1736 2.48928 24.0348 2.48846L6.75356 2.43104L6.60591 1.73651C6.51294 1.29354 6.11372 0.970886 5.65981 0.970886H1.4352C1.17921 0.970886 0.933698 1.07258 0.752681 1.2536C0.571665 1.43461 0.469971 1.68012 0.469971 1.93612C0.469971 2.19212 0.571665 2.43763 0.752681 2.61864C0.933698 2.79966 1.17921 2.90136 1.4352 2.90136H4.87778L5.5231 5.96932L7.11177 13.6611L5.06645 16.9998C4.96024 17.1432 4.89626 17.3134 4.88177 17.4912C4.86727 17.669 4.90283 17.8474 4.98442 18.006C5.14849 18.3314 5.47935 18.5365 5.84575 18.5365H7.56294C7.19686 19.0227 6.99912 19.615 6.99966 20.2236C6.99966 21.7713 8.25747 23.0291 9.80513 23.0291C11.3528 23.0291 12.6106 21.7713 12.6106 20.2236C12.6106 19.6139 12.4083 19.0205 12.0473 18.5365H16.4524C16.0863 19.0227 15.8886 19.615 15.8891 20.2236C15.8891 21.7713 17.1469 23.0291 18.6946 23.0291C20.2422 23.0291 21.5 21.7713 21.5 20.2236C21.5 19.6139 21.2977 19.0205 20.9368 18.5365H24.0348C24.5653 18.5365 25 18.1045 25 17.5713C24.9985 17.3155 24.8958 17.0708 24.7145 16.8905C24.5331 16.7102 24.2878 16.6089 24.0321 16.6088ZM7.15552 4.33417L22.9 4.38612L21.3579 13.0213L8.99028 13.0432L7.15552 4.33417ZM9.80513 21.0877C9.32934 21.0877 8.94106 20.6994 8.94106 20.2236C8.94106 19.7478 9.32934 19.3596 9.80513 19.3596C10.2809 19.3596 10.6692 19.7478 10.6692 20.2236C10.6692 20.4528 10.5782 20.6726 10.4161 20.8346C10.2541 20.9966 10.0343 21.0877 9.80513 21.0877ZM18.6946 21.0877C18.2188 21.0877 17.8305 20.6994 17.8305 20.2236C17.8305 19.7478 18.2188 19.3596 18.6946 19.3596C19.1704 19.3596 19.5586 19.7478 19.5586 20.2236C19.5586 20.4528 19.4676 20.6726 19.3056 20.8346C19.1435 20.9966 18.9237 21.0877 18.6946 21.0877Z" fill="#1E1E1E"/>
</svg>
