<svg width="25" height="22" viewBox="0 0 25 22" fill="none" xmlns="http://www.w3.org/2000/svg">
<path fill-rule="evenodd" clip-rule="evenodd" d="M0.5 19.9091C0.5 19.294 0.998592 18.7954 1.61364 18.7954H23.8864C24.5014 18.7954 25 19.294 25 19.9091C25 20.5241 24.5014 21.0227 23.8864 21.0227H1.61364C0.998592 21.0227 0.5 20.5241 0.5 19.9091Z" fill="#1E1E1E"/>
<path fill-rule="evenodd" clip-rule="evenodd" d="M0.5 11C0.5 10.3849 0.998592 9.88636 1.61364 9.88636H23.8864C24.5014 9.88636 25 10.3849 25 11C25 11.615 24.5014 12.1136 23.8864 12.1136H1.61364C0.998592 12.1136 0.5 11.615 0.5 11Z" fill="#1E1E1E"/>
<path fill-rule="evenodd" clip-rule="evenodd" d="M0.5 2.0909C0.5 1.47586 0.998592 0.977264 1.61364 0.977264H23.8864C24.5014 0.977264 25 1.47586 25 2.0909C25 2.70595 24.5014 3.20454 23.8864 3.20454H1.61364C0.998592 3.20454 0.5 2.70595 0.5 2.0909Z" fill="#1E1E1E"/>
</svg>
